PathFileType	4	(X/Y/Z)	Patient4_TMGait_0pt4_02_right_29.trc.trc
DataRate	CameraRate	NumFrames	NumMarkers	Units	OrigDataRate	OrigDataStartFrame	OrigNumFrames
76.502732240437	76.502732240437	4	33	mm	76.502732240437	71	       141
Frame#	Time	Sacral			L.Shoulder			Chest			R.Shoulder			Neck			R.ASIS			L.ASIS			R.Thigh.Superior			R.Thigh.Lateral			R.Thigh.Inferior			R.Patella			L.Thigh.Superior			L.Thigh.Lateral			L.Thigh.Inferior			L.Patella			L.Shank.Superior			L.Shank.Lateral			L.Shank.Inferior			R.Shank.Superior			R.Shank.Lateral			R.Shank.Inferior			R.Heel			R.Midfoot.Superior			R.Midfoot.Lateral			R.Toe			L.Heel			L.Midfoot.Lateral			L.Midfoot.Superior			L.Toe			L.Elbow			L.Wrist			R.Elbow			R.Wrist			
		X1	Y1	Z1	X2	Y2	Z2	X3	Y3	Z3	X4	Y4	Z4	X5	Y5	Z5	X6	Y6	Z6	X7	Y7	Z7	X8	Y8	Z8	X9	Y9	Z9	X10	Y10	Z10	X11	Y11	Z11	X12	Y12	Z12	X13	Y13	Z13	X14	Y14	Z14	X15	Y15	Z15	X16	Y16	Z16	X17	Y17	Z17	X18	Y18	Z18	X19	Y19	Z19	X20	Y20	Z20	X21	Y21	Z21	X22	Y22	Z22	X23	Y23	Z23	X24	Y24	Z24	X25	Y25	Z25	X26	Y26	Z26	X27	Y27	Z27	X28	Y28	Z28	X29	Y29	Z29	X30	Y30	Z30	X31	Y31	Z31	X32	Y32	Z32	X33	Y33	Z33	

71	39.185000000000	882.676800271543	1005.282392749741	507.285298463805	1033.795779901809	1431.189263989284	302.331663459127	1162.857077558206	1363.246072820844	443.013159635357	1110.892069353638	1437.112883540684	628.594193328977	1042.800773668472	1492.072059055106	457.418891576266	1123.382504170117	936.498456974917	588.983705192436	1072.934573374337	960.664835129980	320.012616481830	1123.863850800578	725.112904606808	561.881759315104	1028.966686025167	628.424543986291	633.113037475284	1084.443988918974	565.002594621493	548.297917247679	1068.779351192296	480.195278922102	555.163351061594	1147.416464716561	768.217255909071	344.540929790610	1085.338303860220	639.084558921514	278.707027854959	1190.308575335545	578.648194445156	333.649943169082	1212.016437109345	512.265639574499	332.710863311003	1192.102274806808	439.343971911945	324.296530100404	1116.715144976884	313.204464290426	278.186501118504	1198.924431099558	209.546687709122	331.147557970105	1031.689674034563	395.134776001342	565.210289142600	952.732245189903	300.182859730949	632.558521849467	978.410302530644	201.274985512000	566.822694604999	830.196278734459	42.998509635252	541.169864819748	1001.458833384013	95.762691601214	575.664011970455	913.533830882715	36.528675506964	615.523078448030	1121.954538258748	41.871152104519	604.156088440850	1104.466389216237	41.150190551916	375.033259062294	1174.850083117675	39.627942249717	291.981726188105	1253.551003727031	108.555111816071	311.560370069400	1382.575825554575	66.735339374373	278.992331736899	914.241526212558	1092.657879548078	217.713247887526	925.006478613218	830.551502646874	218.398884565739	1240.110764854542	1120.576008014759	745.801971750031	1487.229335775858	1142.536550326554	695.305121320318	
72	39.198071428571	883.427821713641	1004.227316742495	504.771711407463	1033.765808974243	1430.036588084186	299.426297481008	1162.732766995207	1362.753867420034	440.519581874794	1110.000863848034	1436.545719194399	625.962546924685	1042.263952111649	1491.256412466819	454.513855986664	1124.143001563780	935.918455504303	587.451618002858	1074.322355902369	959.387031110797	318.403898765666	1124.339142062549	724.249171206688	560.974367293935	1028.455701211508	627.884861939011	631.782890447774	1083.975559160713	563.947542940443	547.457726678661	1067.783203438559	478.847770045972	554.179864355179	1148.620459569925	766.028352309724	343.140037985713	1084.505415712350	636.966513167468	278.903980919325	1189.616645607379	576.532539917747	333.723795494290	1210.077632003609	509.363209324578	333.630946763944	1189.540937641807	436.255816141078	325.306518232460	1112.326159579230	310.976563754300	279.887025965674	1192.769477229764	206.319478256921	333.222787139338	1029.675498931350	394.259907032687	564.325172330356	949.768830226811	300.286014858377	632.059704797110	974.387220317043	200.956904814573	566.553980086391	824.969632532531	43.299561295531	541.300781356751	996.302491413385	95.781086577230	575.732811186145	908.326051587394	36.582925565329	615.556162781923	1116.705297439504	41.653647538931	604.236542121089	1095.121009886714	40.386335188052	377.513550999178	1165.209782828258	37.999702352116	294.088534907075	1245.714988147335	104.645159899744	314.221114311914	1373.972861358003	59.782410784593	280.831335552101	916.293349638466	1090.863948978687	214.141770050277	928.984997962318	828.833335093386	214.135013497909	1238.412557354126	1118.936561257653	742.479918870163	1486.174105559314	1138.979237064289	693.426024507000	
73	39.211142857143	884.163812650696	1003.294135429923	502.178437155219	1033.883804187348	1428.935930789673	296.356188278676	1162.684621722324	1362.333896423552	437.936222737492	1109.139200184039	1436.110673719587	623.209781018744	1041.832956219244	1490.545669743693	451.448481595767	1124.870564118215	935.402296580340	585.806083054630	1075.649647844025	958.297015820137	316.697486178564	1124.998828918599	723.479831054892	559.930756144378	1028.204432824030	627.382203644574	630.304532972682	1083.818499060817	562.950602576716	546.470499453903	1067.165123520866	477.477943797470	553.085046214391	1149.777245566908	764.084926687417	341.849751249286	1084.099603844410	635.336664618854	278.729860538988	1189.128019580298	574.823659547302	333.814817635116	1208.355905556975	506.902449501356	334.428947099702	1187.325462166485	433.639635076907	326.019005733964	1108.631867522043	309.187315824074	280.898629914051	1187.209885650662	203.610578525216	334.807373829682	1027.927714854438	393.404963400645	563.339740876964	947.006036513831	300.505160699783	631.481760292052	970.504047489775	200.721554920099	566.263651287155	819.772451497096	43.801283276626	541.482495756431	991.222829922548	95.855434106811	575.828860320360	903.157053807796	36.728919893514	615.605842466236	1111.483852030732	41.385027603352	604.328606191676	1086.628501785820	39.729821989510	379.203424198362	1156.557789392058	36.820820551855	295.536280899924	1238.464283361364	101.569787361593	316.364243472585	1366.163612462821	54.269428835660	282.364662437824	918.986028735950	1088.958316709279	210.302939968380	933.690151877541	827.027499037781	209.526820099337	1236.018394773702	1117.157735280703	739.330676749521	1484.502585141931	1134.168871639186	691.750687378277	
74	39.224214285714	884.858608347084	1002.552484125157	499.537399285560	1034.131986971315	1427.958568128378	293.168486197880	1162.714048598954	1362.016907458491	435.272299645058	1108.375006656699	1435.860770578355	620.347909016140	1041.522944305772	1489.990809226006	448.264567131317	1125.527341327582	934.998523237081	584.013170993164	1076.841514796433	957.462608870139	314.849731870768	1125.767839220524	722.853104024361	558.705922962776	1028.201385236428	626.957405392754	628.678860192159	1083.970875216768	562.062024479351	545.327830989380	1066.950306156650	476.116999977178	551.916435401195	1150.860837013159	762.552630701433	340.643093062587	1084.176921847555	634.278798153410	278.141542055030	1188.885966878375	573.609536247995	333.814714296554	1206.913782187530	504.978033831956	334.981933203364	1185.509623226821	431.574343733296	326.373648194543	1105.683189464906	307.902480485803	281.190660079040	1182.314873348338	201.503570891834	335.872607956759	1026.467059061196	392.604639876677	562.285042766324	944.445875007721	300.883531672226	630.835274175924	966.777004752318	200.609966136539	565.969753335180	814.611491403381	44.568994603674	541.713151347287	986.244289017948	95.997427395462	575.960266645000	898.032385342969	36.995407686446	615.673014840814	1106.299330394938	41.066542895964	604.431006928788	1079.112177539016	39.222119453176	380.180801500586	1148.990683359370	36.071009069032	296.384419840914	1231.887023289103	99.375971430112	317.936516644587	1359.225712038476	50.269005307986	283.528211800376	922.300950076846	1087.027005142373	206.241660490729	939.077794953039	825.226687324425	204.593967667256	1232.954274871554	1115.320064765022	736.366447858644	1482.193683682073	1128.092433032979	690.289296938000	
